{"scene":0,"asset":{"generator":"ImageToStl.com","version":"2.0"},"scenes":[{"name":"Scene","nodes":[0]}],"nodes":[{"name":"Node0","children":[1]},{"name":"Node1","mesh":0}],"materials":[{"name":"Material_0","pbrMetallicRoughness":{"baseColorFactor":[0.8,0.8,0.8,1.0],"metallicFactor":0.5,"roughnessFactor":0.96},"emissiveFactor":[0.0,0.0,0.0],"doubleSided":true}],"meshes":[{"name":"Mesh0","primitives":[{"indices":3,"material":0,"attributes":{"POSITION":0,"NORMAL":1,"TEXCOORD_0":2}}]}],"accessors":[{"bufferView":0,"componentType":5126,"count":21537,"type":"VEC3","min":[-0.814214,-0.999085,-0.729478],"max":[0.812143,0.999858,0.725016]},{"bufferView":1,"componentType":5126,"count":21537,"type":"VEC3"},{"bufferView":2,"componentType":5126,"count":21537,"type":"VEC2"},{"bufferView":3,"componentType":5123,"count":239013,"type":"SCALAR"}],"bufferViews":[{"target":34962,"buffer":0,"byteLength":258444,"byteOffset":0},{"target":34962,"buffer":0,"byteLength":258444,"byteOffset":258444},{"target":34962,"buffer":0,"byteLength":172296,"byteOffset":516888},{"target":34963,"buffer":0,"byteLength":478026,"byteOffset":689184}],"buffers":[{"byteLength":1167212,"uri":"data:application/octet-stream;base64,"}]}