{"scene":0,"asset":{"generator":"ImageToStl.com","version":"2.0"},"scenes":[{"name":"Scene","nodes":[0]}],"nodes":[{"name":"Node0","children":[1]},{"name":"Node1","mesh":0}],"materials":[{"name":"Material_0","pbrMetallicRoughness":{"baseColorFactor":[0.8,0.8,0.8,1.0],"metallicFactor":0.5,"roughnessFactor":0.96},"emissiveFactor":[0.0,0.0,0.0],"doubleSided":true}],"meshes":[{"name":"Mesh0","primitives":[{"indices":3,"material":0,"attributes":{"POSITION":0,"NORMAL":1,"TEXCOORD_0":2}}]}],"accessors":[{"bufferView":0,"componentType":5126,"count":12665,"type":"VEC3","min":[-1.007254,-0.717733,-0.719834],"max":[0.999851,0.716545,0.707069]},{"bufferView":1,"componentType":5126,"count":12665,"type":"VEC3"},{"bufferView":2,"componentType":5126,"count":12665,"type":"VEC2"},{"bufferView":3,"componentType":5123,"count":177498,"type":"SCALAR"}],"bufferViews":[{"target":34962,"buffer":0,"byteLength":151980,"byteOffset":0},{"target":34962,"buffer":0,"byteLength":151980,"byteOffset":151980},{"target":34962,"buffer":0,"byteLength":101320,"byteOffset":303960},{"target":34963,"buffer":0,"byteLength":354996,"byteOffset":405280}],"buffers":[{"byteLength":760276,"uri":"data:application/octet-stream;base64,"}]}