{"scene":0,"asset":{"generator":"ImageToStl.com","version":"2.0"},"scenes":[{"name":"Scene","nodes":[0]}],"nodes":[{"name":"Node0","children":[1]},{"name":"Node1","mesh":0}],"materials":[{"name":"Material_0","pbrMetallicRoughness":{"baseColorFactor":[0.8,0.8,0.8,1.0],"metallicFactor":0.5,"roughnessFactor":0.96},"emissiveFactor":[0.0,0.0,0.0],"doubleSided":true}],"meshes":[{"name":"Mesh0","primitives":[{"indices":3,"material":0,"attributes":{"POSITION":0,"NORMAL":1,"TEXCOORD_0":2}}]}],"accessors":[{"bufferView":0,"componentType":5126,"count":17883,"type":"VEC3","min":[-0.983157,-0.874116,-0.752491],"max":[0.981419,0.877224,0.732503]},{"bufferView":1,"componentType":5126,"count":17883,"type":"VEC3"},{"bufferView":2,"componentType":5126,"count":17883,"type":"VEC2"},{"bufferView":3,"componentType":5123,"count":231174,"type":"SCALAR"}],"bufferViews":[{"target":34962,"buffer":0,"byteLength":214596,"byteOffset":0},{"target":34962,"buffer":0,"byteLength":214596,"byteOffset":214596},{"target":34962,"buffer":0,"byteLength":143064,"byteOffset":429192},{"target":34963,"buffer":0,"byteLength":462348,"byteOffset":572256}],"buffers":[{"byteLength":1034604,"uri":"data:application/octet-stream;base64,"}]}